<svg xmlns="http://www.w3.org/2000/svg" width="192" height="192" viewBox="0 0 192 192">
  <rect width="192" height="192" rx="24" fill="#0f0f1a"/>
  <rect x="16" y="16" width="72" height="72" rx="12" fill="#ff4757"/>
  <rect x="104" y="16" width="72" height="72" rx="12" fill="#ffa502"/>
  <rect x="16" y="104" width="72" height="72" rx="12" fill="#2ed573"/>
  <rect x="104" y="104" width="72" height="72" rx="12" fill="#3498ff"/>
  <circle cx="52" cy="52" r="10" fill="white"/>
  <circle cx="140" cy="36" r="8" fill="#333"/>
  <circle cx="156" cy="52" r="8" fill="#333"/>
  <circle cx="140" cy="68" r="8" fill="#333"/>
  <circle cx="124" cy="36" r="8" fill="#333"/>
  <circle cx="124" cy="68" r="8" fill="#333"/>
  <circle cx="36" cy="124" r="8" fill="white"/>
  <circle cx="52" cy="140" r="8" fill="white"/>
  <circle cx="68" cy="156" r="8" fill="white"/>
  <circle cx="124" cy="124" r="8" fill="white"/>
  <circle cx="156" cy="124" r="8" fill="white"/>
  <circle cx="124" cy="156" r="8" fill="white"/>
  <circle cx="156" cy="156" r="8" fill="white"/>
</svg>
